<svg xmlns="http://www.w3.org/2000/svg" viewBox="0 0 256 256">
  <circle cx="128" cy="128" r="118" fill="none" stroke="white" stroke-width="20"/>
  <path fill="white" d="M86.3,186.2H70.9V79.1h15.4v107.1H86.3z"/>
  <path fill="white" d="M88.7,56.8c0,5.5-4.5,9.9-10,9.9c-5.5,0-10-4.4-10-9.9c0-5.5,4.5-9.9,10-9.9C84.2,46.9,88.7,51.3,88.7,56.8z"/>
  <path fill="white" d="M108.9,79.1h41.6c39.6,0,57,28.3,57,53.6c0,27.5-21.5,53.6-56.8,53.6h-41.8V79.1H108.9z M124.3,172.4h24.5c34.9,0,42.9-26.5,42.9-39.7c0-21.5-13.7-39.7-43.7-39.7h-23.7V172.4z"/>
</svg>
